<?xml version="1.0" encoding="utf-8"?>
<!-- Generator: Adobe Illustrator 27.1.0, SVG Export Plug-In . SVG Version: 6.00 Build 0)  -->
<svg version="1.1" id="Capa_1" xmlns="http://www.w3.org/2000/svg" xmlns:xlink="http://www.w3.org/1999/xlink" x="0px" y="0px"
	 viewBox="0 0 1229.9 256" style="enable-background:new 0 0 1229.9 256;" width="140" height="29" xml:space="preserve">
<style type="text/css">
	.st0{fill:#FFD933;}
	.st1{fill:#203541;}
</style>
<g>
	<g>
		<g>
			<g>
				<path class="st0" d="M35.5,159.6c0.9,35.4,19.1,70.2,50.6,87.2c7.2,3.9,16.7,8.4,24.9,9.2c8.9,0.8,15.4-6.9,8.7-14.8
					c-3.5-4.1-16.6-9.3-5.3-9.4c11.3-0.1,22.7,5,34.4,4.6c9.7-0.3,50.5-4.8,46.8-20.8c-2-8.8-12.2-6.5-18.6-5.9
					c-11.5,1.1-22.7,0.8-34-2c-36.2-9-70-35.4-73.2-75.3c-1-12.2,1.6-23.4,5.7-34.7c3.6-9.9-2.2-15.4-11.1-7.9
					c-15.3,13-24.5,34.3-27.8,53.8C35.7,148.9,35.7,154.2,35.5,159.6z"/>
				<path class="st0" d="M83.6,0C65.6,0.4,47.9,5.8,32.8,16c-6.6,4.4-15.5,10.5-19.6,17.5c-5,8.5,2.8,15,11,12.4
					c4.5-1.4,15.7-7.7,9,1.3c-6.1,8.2-13.7,14-18.8,23.2C10.1,78,6.7,85.9,4.3,94.2c-2,7-7,21.6-2.3,28.2
					c11.2,16,22.9-18.9,27.1-25.1c10.1-14.9,23.8-27.5,39.5-36.1c32.2-17.6,71.2-14.6,95.7,14.3c3.8,4.4,14.5,16.3,16.3,3.1
					c1.1-8.3-6.9-22.3-10.8-29.2C159.4,30.9,141.7,14.8,122.1,7C110.1,2.2,97.6,0.3,83.6,0z"/>
				<path class="st0" d="M158.3,189.2c34.1-1.3,64-17.5,82.4-46.9c10.8-17.2,16.3-36.9,15.1-57.4c-0.4-7.7-0.6-21.1-5.9-27.3
					c-5.8-6.8-14-2.3-15.7,5.3c-1.3,5.8-1.1,16.7-5.5,6.2c-3.9-9.3-5.5-19.1-10.6-28.1c-4.6-8.2-10.7-15.7-17.4-22.3
					C196,14,186.7,3.7,179.3,5c-12,2.2-4.7,13.9-0.9,19.4c6.1,8.6,10.9,18.1,14.5,28c6.8,19.2,8.6,40.6,4.1,60.6
					c-4.4,19.6-15,37.8-32.3,48.2c-8.9,5.4-18.5,7.9-28.6,10c-4,0.8-9.9,0.7-10.8,5.9c-0.9,5.1,5.7,8.5,9.7,9.2
					C142.6,187.7,150.3,189.5,158.3,189.2z"/>
			</g>
			<g>
				<path class="st1" d="M161.6,122.1h-47.4c0.3,4.3,1.7,7.6,4.1,9.9c2.4,2.3,5.4,3.4,8.9,3.4c5.2,0,8.9-2.2,10.9-6.7h22.3
					c-1.1,4.6-3.2,8.7-6.2,12.3c-3,3.6-6.7,6.5-11.2,8.6c-4.5,2.1-9.5,3.1-15.1,3.1c-6.7,0-12.7-1.4-17.9-4.3
					c-5.2-2.9-9.3-7-12.3-12.4c-2.9-5.4-4.4-11.7-4.4-18.9c0-7.2,1.4-13.5,4.4-18.9c2.9-5.4,7-9.5,12.2-12.4
					c5.2-2.9,11.2-4.3,18-4.3c6.6,0,12.5,1.4,17.7,4.2c5.1,2.8,9.2,6.8,12.1,12.1c2.9,5.2,4.4,11.3,4.4,18.3
					C162,117.9,161.9,120,161.6,122.1z M140.5,110.3c0-3.6-1.2-6.5-3.7-8.7c-2.5-2.2-5.5-3.2-9.2-3.2c-3.5,0-6.5,1-8.9,3.1
					c-2.4,2.1-3.9,5-4.5,8.8H140.5z"/>
			</g>
		</g>
		<g>
			<path class="st1" d="M397.9,149.4h-74.9c0.6,9.2,3.7,16.4,9.5,21.6c5.8,5.2,12.7,7.8,20.9,7.8c6.7,0,12.3-1.6,16.8-4.7
				c4.5-3.1,7.7-7.3,9.5-12.6h16.7c-2.5,9-7.5,16.3-15,22c-7.5,5.6-16.9,8.5-28,8.5c-8.9,0-16.8-2-23.8-6c-7-4-12.5-9.7-16.5-17
				c-4-7.3-6-15.9-6-25.5c0-9.7,1.9-18.2,5.8-25.5c3.9-7.3,9.3-12.9,16.3-16.8c7-3.9,15.1-5.9,24.2-5.9c8.9,0,16.7,1.9,23.6,5.8
				c6.8,3.9,12.1,9.2,15.8,16c3.7,6.8,5.6,14.4,5.6,23C398.5,143,398.3,146.1,397.9,149.4z M378.5,121.5c-2.6-4.3-6.2-7.5-10.7-9.7
				c-4.5-2.2-9.5-3.3-15-3.3c-7.9,0-14.6,2.5-20.1,7.5c-5.5,5-8.7,12-9.5,20.8h59.1C382.4,130.9,381.1,125.8,378.5,121.5z"/>
			<path class="st1" d="M410.4,118.1c3.9-7.2,9.2-12.8,16-16.8c6.8-4,14.4-6,22.8-6c7.3,0,14.1,1.7,20.3,5c6.3,3.4,11,7.8,14.4,13.2
				V64h15.7v126.5h-15.7v-17.6c-3.1,5.6-7.6,10.2-13.7,13.8c-6,3.6-13.1,5.4-21.2,5.4c-8.3,0-15.9-2.1-22.6-6.2
				c-6.8-4.1-12.1-9.9-16-17.3c-3.9-7.4-5.8-15.8-5.8-25.3C404.6,133.7,406.5,125.3,410.4,118.1z M479.6,125
				c-2.8-5.2-6.7-9.3-11.5-12c-4.8-2.8-10.2-4.2-16-4.2c-5.8,0-11.1,1.4-15.9,4.1c-4.8,2.7-8.6,6.7-11.5,12
				c-2.8,5.2-4.3,11.4-4.3,18.5c0,7.2,1.4,13.4,4.3,18.7c2.8,5.3,6.7,9.3,11.5,12.1c4.8,2.8,10.1,4.2,15.9,4.2
				c5.8,0,11.1-1.4,16-4.2c4.8-2.8,8.7-6.8,11.5-12.1c2.8-5.3,4.3-11.5,4.3-18.5C483.9,136.4,482.5,130.3,479.6,125z"/>
			<path class="st1" d="M600.5,96.8v93.7h-15.6v-13.8c-3,4.8-7.1,8.5-12.4,11.2c-5.3,2.7-11.1,4-17.5,4c-7.3,0-13.8-1.5-19.7-4.5
				c-5.8-3-10.4-7.5-13.8-13.6c-3.4-6-5-13.4-5-22V96.8h15.4v52.8c0,9.2,2.3,16.3,7,21.3c4.7,5,11,7.4,19.1,7.4
				c8.3,0,14.9-2.6,19.7-7.7s7.2-12.6,7.2-22.4V96.8H600.5z"/>
			<path class="st1" d="M618.2,118.1c3.9-7.2,9.3-12.8,16.2-16.8c6.9-4,14.8-6,23.7-6c11.5,0,21,2.8,28.5,8.4
				c7.5,5.6,12.4,13.3,14.8,23.2h-16.7c-1.6-5.7-4.7-10.2-9.3-13.5c-4.6-3.3-10.3-5-17.2-5c-8.9,0-16.1,3.1-21.5,9.1
				c-5.5,6.1-8.2,14.7-8.2,25.9c0,11.3,2.7,20,8.2,26.1c5.5,6.2,12.6,9.2,21.5,9.2c6.8,0,12.5-1.6,17.1-4.8
				c4.6-3.2,7.7-7.7,9.4-13.7h16.7c-2.5,9.6-7.5,17.2-15,23c-7.5,5.8-16.9,8.6-28.2,8.6c-8.9,0-16.8-2-23.7-6
				c-6.9-4-12.3-9.6-16.2-16.9c-3.9-7.3-5.8-15.8-5.8-25.6C612.4,133.8,614.4,125.3,618.2,118.1z"/>
			<path class="st1" d="M713.4,118.1c3.9-7.2,9.2-12.8,16-16.8c6.8-4,14.3-6,22.6-6c8.2,0,15.3,1.8,21.4,5.3c6,3.5,10.5,8,13.5,13.3
				V96.8h15.7v93.7h-15.7V173c-3.1,5.5-7.7,10-13.8,13.6c-6.1,3.6-13.2,5.4-21.3,5.4c-8.3,0-15.8-2.1-22.6-6.2
				c-6.7-4.1-12-9.9-15.9-17.3c-3.9-7.4-5.8-15.8-5.8-25.3C707.6,133.7,709.5,125.3,713.4,118.1z M782.6,125
				c-2.8-5.2-6.7-9.3-11.5-12c-4.8-2.8-10.2-4.2-16-4.2c-5.8,0-11.1,1.4-15.9,4.1c-4.8,2.7-8.6,6.7-11.5,12
				c-2.8,5.2-4.3,11.4-4.3,18.5c0,7.2,1.4,13.4,4.3,18.7c2.8,5.3,6.7,9.3,11.5,12.1c4.8,2.8,10.1,4.2,15.9,4.2
				c5.8,0,11.1-1.4,16-4.2c4.8-2.8,8.7-6.8,11.5-12.1c2.8-5.3,4.3-11.5,4.3-18.5C786.9,136.4,785.5,130.3,782.6,125z"/>
			<path class="st1" d="M855.3,176.1l29.1-79.3h16.6l-36.7,93.7H846l-36.7-93.7H826L855.3,176.1z"/>
			<path class="st1" d="M992.7,149.4h-74.9c0.6,9.2,3.7,16.4,9.5,21.6c5.8,5.2,12.7,7.8,20.9,7.8c6.7,0,12.3-1.6,16.8-4.7
				c4.5-3.1,7.7-7.3,9.5-12.6h16.7c-2.5,9-7.5,16.3-15,22c-7.5,5.6-16.9,8.5-28,8.5c-8.9,0-16.8-2-23.8-6c-7-4-12.5-9.7-16.5-17
				c-4-7.3-6-15.9-6-25.5c0-9.7,1.9-18.2,5.8-25.5c3.9-7.3,9.3-12.9,16.3-16.8c7-3.9,15.1-5.9,24.2-5.9c8.9,0,16.7,1.9,23.6,5.8
				c6.8,3.9,12.1,9.2,15.8,16c3.7,6.8,5.6,14.4,5.6,23C993.2,143,993,146.1,992.7,149.4z M973.2,121.5c-2.6-4.3-6.2-7.5-10.7-9.7
				c-4.5-2.2-9.5-3.3-15-3.3c-7.9,0-14.6,2.5-20.1,7.5c-5.5,5-8.7,12-9.5,20.8h59.1C977.1,130.9,975.8,125.8,973.2,121.5z"/>
			<path class="st1" d="M1032.4,99.5c5.1-3,11.2-4.4,18.5-4.4v16.1h-4.1c-17.4,0-26.1,9.5-26.1,28.4v50.9h-15.6V96.8h15.6V112
				C1023.4,106.7,1027.3,102.5,1032.4,99.5z"/>
			<path class="st1" d="M1074.2,188.3c-5.7-2.4-10.2-5.9-13.5-10.3c-3.3-4.4-5.1-9.4-5.5-15.1h16.1c0.5,4.7,2.6,8.5,6.6,11.4
				c3.9,3,9.1,4.4,15.5,4.4c5.9,0,10.6-1.3,14-3.9c3.4-2.6,5.1-5.9,5.1-9.9c0-4.1-1.8-7.1-5.5-9.1c-3.6-2-9.3-4-16.9-5.9
				c-7-1.8-12.6-3.7-17-5.6c-4.4-1.9-8.1-4.7-11.3-8.4c-3.1-3.7-4.7-8.6-4.7-14.6c0-4.8,1.4-9.2,4.3-13.2c2.8-4,6.9-7.1,12.1-9.5
				c5.2-2.3,11.2-3.5,17.9-3.5c10.4,0,18.7,2.6,25.1,7.9c6.4,5.2,9.8,12.4,10.3,21.5h-15.6c-0.3-4.9-2.3-8.8-5.9-11.8
				c-3.6-3-8.4-4.4-14.4-4.4c-5.6,0-10,1.2-13.3,3.6c-3.3,2.4-5,5.5-5,9.4c0,3.1,1,5.6,3,7.6c2,2,4.5,3.6,7.5,4.8
				c3,1.2,7.2,2.5,12.6,4c6.7,1.8,12.2,3.6,16.4,5.4c4.2,1.8,7.8,4.4,10.9,7.9c3,3.5,4.6,8.1,4.7,13.8c0,5.1-1.4,9.7-4.3,13.8
				c-2.8,4.1-6.9,7.3-12,9.7c-5.2,2.3-11.1,3.5-17.9,3.5C1086.3,192,1079.9,190.8,1074.2,188.3z"/>
			<path class="st1" d="M1158,186c-7.1-4-12.7-9.7-16.7-17c-4-7.3-6.1-15.9-6.1-25.5c0-9.6,2.1-18,6.2-25.4c4.2-7.3,9.8-13,17-16.9
				c7.2-3.9,15.2-5.9,24.1-5.9c8.9,0,16.9,2,24.1,5.9c7.2,3.9,12.8,9.5,17,16.8c4.2,7.3,6.2,15.8,6.2,25.5c0,9.7-2.1,18.2-6.4,25.5
				c-4.3,7.4-10.1,13-17.3,17c-7.3,4-15.4,6-24.3,6C1173.1,192,1165.1,190,1158,186z M1197.6,174.4c4.9-2.6,8.9-6.6,11.9-11.8
				c3-5.2,4.5-11.6,4.5-19.1c0-7.5-1.5-13.9-4.4-19.1c-3-5.2-6.8-9.1-11.6-11.7c-4.8-2.6-10-3.8-15.6-3.8c-5.7,0-10.9,1.3-15.6,3.8
				c-4.7,2.6-8.5,6.5-11.4,11.7c-2.8,5.2-4.3,11.6-4.3,19.1c0,7.6,1.4,14.1,4.2,19.3c2.8,5.2,6.5,9.1,11.2,11.7
				c4.7,2.6,9.8,3.8,15.4,3.8C1187.4,178.3,1192.7,177,1197.6,174.4z"/>
		</g>
	</g>
</g>
</svg>
