<svg width="500" height="500" viewBox="0 0 500 500" fill="none" xmlns="http://www.w3.org/2000/svg">
<g id="Logo">
<g id="Espiral">
<path id="Espiral3" d="M69.3714 311.693C71.129 380.828 106.673 448.889 168.094 481.894C182.253 489.51 200.708 498.299 216.82 499.764C234.104 501.424 246.993 486.288 233.909 470.86C227.073 462.755 201.489 452.795 223.46 452.502C245.529 452.209 267.695 462.169 290.642 461.583C309.488 461.095 389.267 452.307 381.943 421.059C377.94 403.873 358.117 408.365 345.618 409.439C323.159 411.49 301.286 410.904 279.315 405.435C208.52 387.859 142.608 336.203 136.358 258.377C134.405 234.649 139.385 212.775 147.392 190.609C154.423 171.275 143.096 160.631 125.812 175.181C95.9317 200.472 78.062 242.07 71.5196 280.153C69.6643 290.699 69.762 301.049 69.3714 311.693Z" fill="#FFD933"/>
<path id="Espiral2" d="M163.407 0C128.058 0.878834 93.5881 11.4248 64.0983 31.3451C51.3064 40.0358 33.7297 51.9488 25.7226 65.6196C15.9578 82.2198 31.1909 94.8164 47.2052 89.8363C55.8959 87.1022 77.7691 74.8962 64.7819 92.4728C52.9664 108.389 38.1239 119.717 28.0661 137.684C19.766 152.331 13.0283 167.857 8.34121 184.067C4.43528 197.738 -5.32954 226.153 3.75174 239.14C25.7226 270.388 48.4746 202.229 56.6771 190.121C76.3044 160.924 103.158 136.415 133.917 119.619C196.705 85.2469 272.87 91.0081 320.718 147.449C328.041 156.139 349.036 179.282 352.551 153.503C354.797 137.196 339.173 109.952 331.557 96.3788C311.246 60.3466 276.776 28.9039 238.596 13.6707C215.16 4.29652 190.65 0.488241 163.407 0Z" fill="#FFD933"/>
<path id="Espiral1" d="M309.293 369.501C375.987 367.06 434.185 335.324 470.12 277.907C491.212 244.218 501.953 205.842 499.707 165.904C498.828 150.866 498.535 124.697 488.087 112.588C476.76 99.4059 460.745 108.097 457.523 122.939C454.984 134.364 455.277 155.456 446.684 135.047C438.97 116.885 435.943 97.7459 426.08 80.0715C417.097 64.0572 405.086 49.41 392.099 36.5204C382.822 27.2439 364.757 7.03068 350.11 9.56953C326.674 13.7684 340.931 36.8134 348.45 47.3594C360.363 64.1549 369.835 82.6104 376.768 102.042C390.146 139.539 393.563 181.43 384.677 220.392C375.987 258.67 355.383 294.116 321.597 314.622C304.118 325.168 285.467 330.149 265.742 334.054C257.93 335.617 246.31 335.324 244.552 345.479C242.795 355.537 255.684 362.079 263.398 363.544C278.534 366.474 293.572 369.989 309.293 369.501Z" fill="#FFD933"/>
</g>
<g id="Letra">
<path id="Vector" d="M315.64 238.555H222.972C223.655 246.952 226.292 253.397 230.979 257.889C235.666 262.381 241.427 264.529 248.36 264.529C258.614 264.529 265.644 260.135 269.648 251.444H313.199C310.953 260.33 306.949 268.337 301.09 275.466C295.232 282.594 288.006 288.16 279.217 292.163C270.429 296.167 260.664 298.218 249.728 298.218C236.643 298.218 225.023 295.386 214.769 289.722C204.516 284.059 196.607 275.954 190.846 265.408C185.084 254.862 182.253 242.558 182.253 228.497C182.253 214.435 185.084 202.132 190.748 191.586C196.412 181.04 204.321 172.935 214.574 167.271C224.827 161.608 236.545 158.776 249.728 158.776C262.617 158.776 274.14 161.51 284.197 167.076C294.255 172.544 302.067 180.454 307.828 190.609C313.492 200.765 316.324 212.678 316.324 226.251C316.421 230.254 316.128 234.258 315.64 238.555ZM274.53 215.412C274.53 208.284 272.089 202.62 267.304 198.421C262.519 194.222 256.563 192.074 249.337 192.074C242.502 192.074 236.643 194.125 231.956 198.128C227.268 202.132 224.339 207.893 223.167 215.314H274.53V215.412Z" fill="#203541"/>
</g>
</g>
</svg>
