<?xml version="1.0" encoding="utf-8"?>
<!-- Generator: Adobe Illustrator 27.1.0, SVG Export Plug-In . SVG Version: 6.00 Build 0)  -->
<svg version="1.1" id="Capa_1" xmlns="http://www.w3.org/2000/svg" xmlns:xlink="http://www.w3.org/1999/xlink" x="0px" y="0px"
	 viewBox="0 0 512 512" style="enable-background:new 0 0 512 512;" width="76" height="76" xml:space="preserve">
<style type="text/css">
	.st0{fill:#FFD933;}
	.st1{fill:#203541;}
</style>
<g>
	<g>
		<g>
			<path class="st0" d="M71,319.2c1.8,70.8,38.2,140.5,101.1,174.3c14.5,7.8,33.4,16.8,49.9,18.3c17.7,1.7,30.9-13.8,17.5-29.6
				c-7-8.3-33.2-18.5-10.7-18.8c22.6-0.3,45.3,9.9,68.8,9.3c19.3-0.5,101-9.5,93.5-41.5c-4.1-17.6-24.4-13-37.2-11.9
				c-23,2.1-45.4,1.5-67.9-4.1c-72.5-18-140-70.9-146.4-150.6c-2-24.3,3.1-46.7,11.3-69.4c7.2-19.8-4.4-30.7-22.1-15.8
				c-30.6,25.9-48.9,68.5-55.6,107.5C71.3,297.7,71.4,308.3,71,319.2z"/>
			<path class="st0" d="M167.3,0C131.1,0.9,95.8,11.7,65.6,32.1c-13.1,8.9-31.1,21.1-39.3,35.1c-10,17,5.6,29.9,22,24.8
				c8.9-2.8,31.3-15.3,18,2.7C54.2,111,39,122.6,28.7,141c-8.5,15-15.4,30.9-20.2,47.5c-4,14-14,43.1-4.7,56.4
				c22.5,32,45.8-37.8,54.2-50.2c20.1-29.9,47.6-55,79.1-72.2c64.3-35.2,142.3-29.3,191.3,28.5c7.5,8.9,29,32.6,32.6,6.2
				c2.3-16.7-13.7-44.6-21.5-58.5c-20.8-36.9-56.1-69.1-95.2-84.7C220.3,4.4,195.2,0.5,167.3,0z"/>
			<path class="st0" d="M316.7,378.4c68.3-2.5,127.9-35,164.7-93.8c21.6-34.5,32.6-73.8,30.3-114.7c-0.9-15.4-1.2-42.2-11.9-54.6
				c-11.6-13.5-28-4.6-31.3,10.6c-2.6,11.7-2.3,33.3-11.1,12.4c-7.9-18.6-11-38.2-21.1-56.3c-9.2-16.4-21.5-31.4-34.8-44.6
				c-9.5-9.5-28-30.2-43-27.6c-24,4.3-9.4,27.9-1.7,38.7c12.2,17.2,21.9,36.1,29,56c13.7,38.4,17.2,81.3,8.1,121.2
				c-8.9,39.2-30,75.5-64.6,96.5c-17.9,10.8-37,15.9-57.2,19.9c-8,1.6-19.9,1.3-21.7,11.7c-1.8,10.3,11.4,17,19.3,18.5
				C285.2,375.3,300.6,378.9,316.7,378.4z"/>
		</g>
		<g>
			<path class="st1" d="M323.2,244.3h-94.9c0.7,8.6,3.4,15.2,8.2,19.8c4.8,4.6,10.7,6.8,17.8,6.8c10.5,0,17.7-4.5,21.8-13.4h44.6
				c-2.3,9.1-6.4,17.3-12.4,24.6c-6,7.3-13.4,13-22.4,17.1c-9,4.1-19,6.2-30.2,6.2c-13.4,0-25.3-2.9-35.8-8.7
				c-10.5-5.8-18.6-14.1-24.5-24.9c-5.9-10.8-8.8-23.4-8.8-37.8c0-14.4,2.9-27,8.7-37.8c5.8-10.8,13.9-19.1,24.4-24.9
				c10.5-5.8,22.5-8.7,36-8.7c13.2,0,25,2.8,35.3,8.5c10.3,5.6,18.3,13.7,24.2,24.1c5.8,10.4,8.7,22.6,8.7,36.5
				C324,235.8,323.7,239.9,323.2,244.3z M281.1,220.6c0-7.3-2.5-13.1-7.4-17.4c-4.9-4.3-11-6.5-18.4-6.5c-7,0-13,2.1-17.8,6.2
				c-4.8,4.1-7.8,10-9,17.6H281.1z"/>
		</g>
	</g>
</g>
</svg>
