<?xml version="1.0" encoding="utf-8"?>
<!-- Generator: Adobe Illustrator 25.0.1, SVG Export Plug-In . SVG Version: 6.00 Build 0)  -->
<svg version="1.1" id="Capa_1" xmlns="http://www.w3.org/2000/svg" xmlns:xlink="http://www.w3.org/1999/xlink" x="0px" y="0px"
	 viewBox="0 0 223.87 59.91" style="enable-background:new 0 0 223.87 59.91;" xml:space="preserve">
<style type="text/css">
	.st0{fill:url(#SVGID_1_);}
	.st1{fill:url(#SVGID_2_);}
	.st2{fill:#344E9C;}
	.st3{fill:#69C7F2;}
	.st4{fill:#2F8DCC;}
	.st5{fill:#FFFFFF;}
	.st6{fill:#1D1D1B;}
	.st7{fill:url(#SVGID_3_);}
	.st8{fill:url(#SVGID_4_);}
	.st9{fill:url(#SVGID_5_);}
	.st10{fill:url(#SVGID_6_);}
	.st11{fill:url(#SVGID_7_);}
	.st12{fill:#454443;}
	.st13{fill:#69C8F2;}
	.st14{fill:#364E9C;}
	.st15{fill:url(#SVGID_8_);}
</style>
<g>
	<g>
		<g>
			<path class="st14" d="M89.37,24.16c-1.84-1.1-3.93-1.66-6.25-1.66c-2.02,0-3.86,0.43-5.51,1.29c-1.65,0.86-2.97,2-3.97,3.42
				V13.89c0-0.54-0.16-0.98-0.47-1.29c-0.32-0.32-0.73-0.48-1.25-0.48c-0.54,0-0.98,0.16-1.29,0.48c-0.32,0.32-0.48,0.75-0.48,1.29
				v21.39c0.03,2.36,0.6,4.48,1.7,6.37c1.1,1.89,2.6,3.38,4.49,4.46c1.89,1.09,4.01,1.63,6.37,1.63c2.42,0,4.58-0.55,6.48-1.65
				s3.41-2.61,4.51-4.51c1.1-1.9,1.65-4.06,1.65-6.48c0-2.39-0.54-4.53-1.61-6.44C92.67,26.76,91.21,25.26,89.37,24.16z M90.7,39.95
				c-0.8,1.42-1.9,2.54-3.29,3.38c-1.39,0.83-2.96,1.25-4.71,1.25c-1.72,0-3.28-0.41-4.67-1.25c-1.39-0.83-2.48-1.96-3.26-3.38
				c-0.79-1.42-1.18-3.04-1.18-4.85c0-1.78,0.39-3.39,1.18-4.83c0.79-1.44,1.87-2.56,3.26-3.38c1.39-0.82,2.95-1.22,4.67-1.22
				c1.75,0,3.32,0.41,4.71,1.22c1.39,0.82,2.48,1.94,3.29,3.38c0.8,1.44,1.2,3.04,1.2,4.83C91.9,36.92,91.5,38.53,90.7,39.95z
				 M116.72,24.07c-1.71-1.04-3.71-1.56-6.01-1.56c-2.33,0-4.38,0.54-6.16,1.63s-3.18,2.58-4.19,4.46
				c-1.01,1.89-1.52,4.07-1.52,6.55c0,2.45,0.54,4.62,1.61,6.53c1.07,1.9,2.55,3.39,4.44,4.46c1.89,1.07,4.06,1.61,6.5,1.61
				c1.42,0,2.9-0.28,4.44-0.84c1.54-0.56,2.81-1.26,3.81-2.11c0.36-0.3,0.54-0.66,0.52-1.09c-0.02-0.42-0.22-0.82-0.61-1.18
				c-0.3-0.24-0.67-0.35-1.09-0.34c-0.42,0.02-0.8,0.16-1.13,0.43c-0.67,0.57-1.55,1.05-2.65,1.43c-1.1,0.38-2.2,0.57-3.29,0.57
				c-1.81,0-3.41-0.41-4.8-1.22c-1.39-0.82-2.48-1.93-3.29-3.35c-0.63-1.12-1-2.38-1.14-3.76h18.29c0.48,0,0.88-0.14,1.18-0.43
				c0.3-0.29,0.45-0.67,0.45-1.16c0-2.36-0.47-4.46-1.41-6.3C119.75,26.55,118.42,25.11,116.72,24.07z M102.23,33.38
				c0.16-1.14,0.46-2.19,0.93-3.15c0.71-1.44,1.71-2.56,3.01-3.38c1.3-0.81,2.81-1.22,4.53-1.22c1.69,0,3.15,0.39,4.37,1.18
				c1.22,0.79,2.17,1.87,2.83,3.26c0.48,1.01,0.77,2.11,0.89,3.31H102.23z M185.72,13.08c-0.66,0-1.25,0.22-1.74,0.66
				c-0.5,0.44-0.75,1.04-0.75,1.79c0,0.7,0.24,1.28,0.73,1.77c0.48,0.48,1.06,0.72,1.72,0.72c0.69,0,1.28-0.24,1.77-0.72
				c0.48-0.48,0.73-1.07,0.73-1.77c0-0.75-0.25-1.35-0.75-1.79C186.92,13.3,186.35,13.08,185.72,13.08z M213,45.03l-9.43-11.61
				l9.07-8.19c0.36-0.3,0.55-0.66,0.57-1.07c0.02-0.41-0.14-0.79-0.47-1.16c-0.33-0.36-0.7-0.55-1.09-0.57
				c-0.39-0.02-0.77,0.14-1.13,0.48l-12.78,11.55V13.85c0-0.51-0.16-0.93-0.48-1.25c-0.32-0.32-0.73-0.48-1.25-0.48
				c-0.51,0-0.93,0.16-1.25,0.48c-0.32,0.32-0.48,0.73-0.48,1.25V45.8c0,0.51,0.16,0.93,0.48,1.25c0.32,0.32,0.73,0.48,1.25,0.48
				c0.51,0,0.93-0.16,1.25-0.48c0.32-0.32,0.48-0.73,0.48-1.25v-7.1l3.41-3.08l9.32,11.46c0.3,0.39,0.66,0.61,1.09,0.66
				c0.42,0.04,0.83-0.1,1.22-0.43c0.39-0.33,0.6-0.7,0.63-1.11C213.44,45.78,213.31,45.39,213,45.03z M185.72,22.73
				c-0.54,0-0.97,0.16-1.29,0.47c-0.32,0.32-0.48,0.75-0.48,1.29v21.26c0,0.54,0.16,0.97,0.48,1.29c0.32,0.32,0.75,0.48,1.29,0.48
				c0.51,0,0.93-0.16,1.25-0.48c0.32-0.32,0.48-0.75,0.48-1.29V24.5c0-0.54-0.16-0.97-0.48-1.29
				C186.65,22.89,186.23,22.73,185.72,22.73z M172.08,23.79c-1.69-0.89-3.61-1.34-5.76-1.34c-1.96,0-3.75,0.43-5.35,1.29
				c-1.13,0.61-2.09,1.38-2.9,2.3V24.5c0-0.54-0.16-0.97-0.47-1.29c-0.32-0.32-0.73-0.47-1.25-0.47c-0.54,0-0.98,0.16-1.29,0.47
				c-0.32,0.32-0.48,0.75-0.48,1.29v21.3c0,0.51,0.16,0.93,0.48,1.25c0.32,0.32,0.75,0.48,1.29,0.48c0.51,0,0.93-0.16,1.25-0.48
				c0.32-0.32,0.47-0.73,0.47-1.25V32.38c0-1.27,0.35-2.4,1.04-3.4c0.69-1,1.64-1.78,2.83-2.36c1.19-0.57,2.53-0.86,4.01-0.86
				c1.54,0,2.92,0.3,4.15,0.91c1.22,0.61,2.19,1.51,2.9,2.72c0.71,1.21,1.07,2.75,1.07,4.62V45.8c0,0.48,0.17,0.89,0.5,1.22
				c0.33,0.33,0.75,0.5,1.27,0.5c0.48,0,0.89-0.17,1.22-0.5c0.33-0.33,0.5-0.74,0.5-1.22V34.01c0-2.48-0.49-4.58-1.47-6.3
				C175.11,25.99,173.77,24.69,172.08,23.79z M146.7,22.73c-0.51,0-0.93,0.16-1.25,0.47c-0.32,0.32-0.48,0.73-0.48,1.25v13.42
				c0,1.27-0.35,2.4-1.04,3.4c-0.7,1-1.64,1.78-2.83,2.36c-1.19,0.57-2.53,0.86-4.01,0.86c-1.54,0-2.92-0.3-4.15-0.91
				c-1.22-0.6-2.19-1.51-2.9-2.72c-0.71-1.21-1.07-2.75-1.07-4.62V24.45c0-0.48-0.17-0.89-0.5-1.22c-0.33-0.33-0.76-0.5-1.27-0.5
				c-0.48,0-0.89,0.17-1.22,0.5c-0.33,0.33-0.5,0.74-0.5,1.22v11.78c0,2.48,0.49,4.58,1.47,6.3s2.32,3.03,4.01,3.92
				c1.69,0.89,3.61,1.34,5.76,1.34c1.96,0,3.75-0.43,5.35-1.29c1.13-0.61,2.09-1.38,2.9-2.31v1.56c0,0.54,0.16,0.97,0.48,1.29
				c0.32,0.32,0.73,0.48,1.25,0.48c0.51,0,0.94-0.16,1.27-0.48c0.33-0.32,0.5-0.75,0.5-1.29v-21.3c0-0.51-0.17-0.93-0.5-1.25
				C147.63,22.89,147.21,22.73,146.7,22.73z"/>
		</g>
	</g>
</g>
<g>
	<path class="st2" d="M45.86,18.2c-1.18-5.08-4.51-9.34-9-11.74C35.61,6.26,34.32,6.12,33,6.12c-0.65,0-1.29,0.03-1.93,0.08
		c-0.01,0-0.02,0-0.03,0C29.9,6.27,29,6.42,28.26,6.62c-0.13,0.03-0.25,0.07-0.37,0.1c-2.3,0.72-2.78,2.92-2.78,4.8v8.51v1.33
		c0,0,0,0.41,0.39,0.22c1.2-0.6,2.5-0.86,3.97-0.86c1.79,0,3.39,0.42,4.8,1.27c1.42,0.85,2.54,2,3.36,3.46
		c0.81,1.43,1.21,3.05,1.23,4.83c0,0.31-0.03,0.61-0.05,0.92h0.01c-0.11,1.53-0.5,2.93-1.22,4.17c-0.85,1.46-2,2.62-3.46,3.46
		c-0.95,0.55-2,0.91-3.12,1.1c8.66-1.25,15.32-8.67,15.33-17.67c0-0.01,0-0.01,0-0.02C46.34,20.86,46.17,19.5,45.86,18.2z"/>
	<path class="st3" d="M37.53,51.92c-8.49,0-15.55-5.92-17.42-13.84c-0.85-3.6-0.64-6.68-0.59-7.22c0.01,0.11,0.02,0.22,0.03,0.33
		c-0.02-0.22-0.04-0.43-0.04-0.65V11.05c0,0,0.05-0.76-0.54-0.33c-3.82,2.79-6.78,6.69-8.41,11.24c-0.9,2.51-1.41,5.19-1.41,8.01
		c0,13.16,10.67,23.83,23.83,23.83c5.31,0,10.19-1.76,14.15-4.69C44.37,50.88,41.07,51.92,37.53,51.92z"/>
	<path class="st4" d="M36.87,6.47c4.49,2.4,7.82,6.65,9,11.74c0.3,1.3,0.48,2.66,0.48,4.05c0,0.01,0,0.01,0,0.02
		c-0.01,9-6.67,16.42-15.33,17.67c-0.29,0.05-0.58,0.09-0.87,0.11c-0.09,0.01-0.19,0.01-0.28,0.02c-0.03,0-0.05,0.01-0.08,0.01
		c-0.34,0.04-0.69,0.07-1.04,0.07c-0.05,0-0.1-0.01-0.15-0.01c-2.38-0.04-4.53-1.03-6.09-2.6c-0.65-0.61-1.22-1.31-1.68-2.11
		c-0.43-0.74-0.9-1.85-1.15-3.35c-0.05-0.29-0.09-0.58-0.12-0.89c-0.01-0.11-0.02-0.22-0.03-0.33c-0.05,0.54-0.26,3.62,0.59,7.22
		c1.87,7.92,8.93,13.84,17.42,13.84c3.54,0,6.84-1.04,9.62-2.82c2.57-1.9,4.74-4.3,6.37-7.07c2.09-3.54,3.31-7.66,3.31-12.08
		C56.83,18.12,48.19,8.32,36.87,6.47z"/>
</g>
</svg>
