<svg id="Capa_1" data-name="Capa 1" xmlns="http://www.w3.org/2000/svg" viewBox="0 0 240.89 59.91"><defs><style>.cls-1{fill:#fff;}.cls-2{fill:#344e9c;}.cls-3{fill:#69c7f2;}.cls-4{fill:#2f8dcc;}</style></defs><circle class="cls-1" cx="33.09" cy="29.89" r="23.93"/><path class="cls-2" d="M43.61,20.28a14.62,14.62,0,0,0-7.35-9.6,19.46,19.46,0,0,0-3.17-.28c-.53,0-1.06,0-1.58.07h0a11.05,11.05,0,0,0-2.27.34l-.3.08c-1.89.59-2.28,2.39-2.28,3.93v8.05s0,.34.32.18a7.08,7.08,0,0,1,3.25-.71,7.46,7.46,0,0,1,6.67,3.87,8,8,0,0,1,1,3.95c0,.26,0,.51,0,.75h0a7.83,7.83,0,0,1-1,3.42,7.62,7.62,0,0,1-5.39,3.73A14.61,14.61,0,0,0,44,23.61v0A14.49,14.49,0,0,0,43.61,20.28Z"/><path class="cls-3" d="M36.8,47.85A14.65,14.65,0,0,1,22.56,36.54a20.12,20.12,0,0,1-.48-5.91,2.28,2.28,0,0,0,0,.27c0-.17,0-.35,0-.53V14.43s0-.63-.44-.27a19.47,19.47,0,1,0,23,31.39A14.54,14.54,0,0,1,36.8,47.85Z"/><path class="cls-4" d="M36.26,10.68A14.81,14.81,0,0,1,44,23.59v0A14.61,14.61,0,0,1,31.47,38.06c-.23,0-.47.07-.71.09h-.29a8.11,8.11,0,0,1-.86,0h-.12a7.16,7.16,0,0,1-5-2.13,7.35,7.35,0,0,1-2.31-4.46c0-.24-.08-.48-.1-.73a2.28,2.28,0,0,1,0-.27,20.12,20.12,0,0,0,.48,5.91,14.61,14.61,0,0,0,22.1,9,19.46,19.46,0,0,0-8.4-34.87Z"/><path class="cls-1" d="M213.38,44.68,203.87,33,213,24.73a1.46,1.46,0,0,0,.57-1.08,1.56,1.56,0,0,0-.48-1.16,1.51,1.51,0,0,0-1.09-.57,1.56,1.56,0,0,0-1.15.48L198,34V13.26a1.66,1.66,0,0,0-1.74-1.73,1.65,1.65,0,0,0-1.74,1.73v32.2a1.65,1.65,0,0,0,1.74,1.74A1.66,1.66,0,0,0,198,45.46V38.3l3.43-3.1,9.4,11.54a1.6,1.6,0,0,0,1.09.66,1.62,1.62,0,0,0,1.24-.43,1.7,1.7,0,0,0,.64-1.12A1.64,1.64,0,0,0,213.38,44.68Zm-124.59-21A12,12,0,0,0,82.49,22a11.77,11.77,0,0,0-5.55,1.3,10.91,10.91,0,0,0-4,3.45V13.31a1.75,1.75,0,0,0-.48-1.3,1.7,1.7,0,0,0-1.26-.48,1.66,1.66,0,0,0-1.78,1.78V34.86a12.82,12.82,0,0,0,1.71,6.42,12.27,12.27,0,0,0,4.52,4.5,12.62,12.62,0,0,0,6.42,1.64,12.79,12.79,0,0,0,6.53-1.66,12.41,12.41,0,0,0,4.55-4.55,12.79,12.79,0,0,0,1.66-6.53A13,13,0,0,0,93.2,28.2,12.19,12.19,0,0,0,88.79,23.65Zm1.35,15.92A9.15,9.15,0,0,1,86.83,43a9,9,0,0,1-4.75,1.26,9,9,0,0,1-8-4.66,10.58,10.58,0,0,1,0-9.75,8.61,8.61,0,0,1,3.29-3.4,9,9,0,0,1,4.7-1.24,9.12,9.12,0,0,1,4.75,1.24,8.87,8.87,0,0,1,3.31,3.4,10.43,10.43,0,0,1,0,9.75Zm26.21-16a11.36,11.36,0,0,0-6-1.57,11.41,11.41,0,0,0-10.43,6.14,13.74,13.74,0,0,0-1.53,6.6A13.14,13.14,0,0,0,100,41.3a11.65,11.65,0,0,0,4.47,4.5,13.32,13.32,0,0,0,11,.78,12.1,12.1,0,0,0,3.84-2.13,1.27,1.27,0,0,0,.52-1.09,1.69,1.69,0,0,0-.61-1.19,1.61,1.61,0,0,0-1.1-.34,1.94,1.94,0,0,0-1.14.43,8,8,0,0,1-2.67,1.44,10.2,10.2,0,0,1-3.31.57A9.39,9.39,0,0,1,106.15,43a8.88,8.88,0,0,1-3.31-3.38,9.38,9.38,0,0,1-1.15-3.79h18.43a1.66,1.66,0,0,0,1.19-.43,1.56,1.56,0,0,0,.46-1.17,13.9,13.9,0,0,0-1.42-6.35A10.67,10.67,0,0,0,116.35,23.56ZM101.76,33a10.3,10.3,0,0,1,.94-3.18,8.22,8.22,0,0,1,3-3.4,8.41,8.41,0,0,1,4.56-1.23,8,8,0,0,1,4.41,1.18,7.82,7.82,0,0,1,2.85,3.29,9.88,9.88,0,0,1,.9,3.34Zm70.38-9.66a12.25,12.25,0,0,0-5.8-1.35,11.16,11.16,0,0,0-5.39,1.3A10.26,10.26,0,0,0,158,25.56V24a1.78,1.78,0,0,0-.48-1.31,1.7,1.7,0,0,0-1.26-.47,1.75,1.75,0,0,0-1.3.47,1.78,1.78,0,0,0-.48,1.31V45.46a1.7,1.7,0,0,0,.48,1.26,1.75,1.75,0,0,0,1.3.48A1.65,1.65,0,0,0,158,45.46V31.94a5.82,5.82,0,0,1,1.05-3.42,7.18,7.18,0,0,1,2.85-2.38,9.17,9.17,0,0,1,4-.87,9.27,9.27,0,0,1,4.18.92,6.83,6.83,0,0,1,2.92,2.74,9.05,9.05,0,0,1,1.08,4.66V45.46a1.64,1.64,0,0,0,.5,1.23,1.73,1.73,0,0,0,1.28.51,1.72,1.72,0,0,0,1.73-1.74V33.59a12.61,12.61,0,0,0-1.48-6.35A9.91,9.91,0,0,0,172.14,23.29Zm13.74-1.07A1.64,1.64,0,0,0,184.1,24V45.41a1.66,1.66,0,0,0,1.78,1.79,1.7,1.7,0,0,0,1.26-.48,1.78,1.78,0,0,0,.48-1.31V24a1.78,1.78,0,0,0-.48-1.31A1.7,1.7,0,0,0,185.88,22.22Zm-39.32,0A1.63,1.63,0,0,0,144.83,24V37.47a5.82,5.82,0,0,1-1.05,3.42,7.15,7.15,0,0,1-2.86,2.38,9.17,9.17,0,0,1-4,.87,9.33,9.33,0,0,1-4.18-.92,6.88,6.88,0,0,1-2.92-2.74,9.06,9.06,0,0,1-1.07-4.66V24a1.67,1.67,0,0,0-.5-1.23,1.73,1.73,0,0,0-1.28-.5A1.71,1.71,0,0,0,125.19,24V35.82a12.61,12.61,0,0,0,1.49,6.35,9.85,9.85,0,0,0,4,3.95,12.2,12.2,0,0,0,5.8,1.35,11.19,11.19,0,0,0,5.39-1.3,10.61,10.61,0,0,0,2.92-2.33v1.57a1.78,1.78,0,0,0,.48,1.31,1.7,1.7,0,0,0,1.25.48,1.77,1.77,0,0,0,1.28-.48,1.72,1.72,0,0,0,.51-1.31V24a1.65,1.65,0,0,0-.51-1.26A1.76,1.76,0,0,0,146.56,22.22Zm39.32-9.73a2.6,2.6,0,0,0-1.76.66,2.27,2.27,0,0,0-.75,1.8,2.44,2.44,0,0,0,.73,1.79,2.4,2.4,0,0,0,1.74.72,2.44,2.44,0,0,0,1.78-.72,2.48,2.48,0,0,0,.73-1.79,2.25,2.25,0,0,0-.76-1.8A2.52,2.52,0,0,0,185.88,12.49Z"/><path class="cls-1" d="M202.79,17.46a.82.82,0,0,1-.85-.85V5.48a.82.82,0,0,1,.24-.61.85.85,0,0,1,.61-.24h3.29a4.32,4.32,0,0,1,2.18.54,3.8,3.8,0,0,1,1.49,1.51,4.41,4.41,0,0,1,.53,2.21,4.16,4.16,0,0,1-.53,2.13,3.74,3.74,0,0,1-1.49,1.46,4.32,4.32,0,0,1-2.18.53h-2.44v3.6a.81.81,0,0,1-.85.85Zm.85-6h2.44a2.65,2.65,0,0,0,1.33-.33,2.36,2.36,0,0,0,.9-.9,2.58,2.58,0,0,0,.33-1.31,2.83,2.83,0,0,0-.33-1.39,2.49,2.49,0,0,0-.9-1,2.56,2.56,0,0,0-1.33-.34h-2.44Z"/><path class="cls-1" d="M213,17.46a.84.84,0,0,1-.61-.24.86.86,0,0,1-.25-.61V5.48a.84.84,0,0,1,.86-.85h3a4.42,4.42,0,0,1,2.18.52,3.77,3.77,0,0,1,1.49,1.42,4,4,0,0,1,.53,2.1,3.68,3.68,0,0,1-.53,2A3.63,3.63,0,0,1,218.17,12a4.64,4.64,0,0,1-2.18.5h-2.11v4.09a.85.85,0,0,1-.24.61A.81.81,0,0,1,213,17.46Zm.85-6.52H216a3,3,0,0,0,1.33-.29,2.25,2.25,0,0,0,.9-.8,2.16,2.16,0,0,0,.33-1.18,2.46,2.46,0,0,0-.33-1.28,2.35,2.35,0,0,0-.9-.87A2.75,2.75,0,0,0,216,6.21h-2.11Zm6,6.52a1,1,0,0,1-.42-.09.82.82,0,0,1-.32-.32l-3-4.76,1.66-.48,2.7,4.34a.9.9,0,0,1,.08.9A.77.77,0,0,1,219.85,17.46Z"/><path class="cls-1" d="M228.49,17.63a6.86,6.86,0,0,1-2.64-.49,6,6,0,0,1-2.07-1.36,6.12,6.12,0,0,1-1.33-2.09A7.1,7.1,0,0,1,222,11a7.06,7.06,0,0,1,.48-2.65,6.18,6.18,0,0,1,1.33-2.08A6.11,6.11,0,0,1,225.85,5a7,7,0,0,1,2.64-.49,7,7,0,0,1,2.64.49,6.05,6.05,0,0,1,3.41,3.44A7.06,7.06,0,0,1,235,11a7.1,7.1,0,0,1-.48,2.65,6.17,6.17,0,0,1-1.35,2.09,6,6,0,0,1-2.06,1.36A6.79,6.79,0,0,1,228.49,17.63Zm0-1.55A4.74,4.74,0,0,0,232,14.63a4.59,4.59,0,0,0,1-1.6,5.45,5.45,0,0,0,.35-2,5.41,5.41,0,0,0-.35-2,4.65,4.65,0,0,0-2.56-2.66,5.27,5.27,0,0,0-3.93,0A4.51,4.51,0,0,0,225,7.45a4.89,4.89,0,0,0-1,1.6,5.68,5.68,0,0,0,0,4,4.89,4.89,0,0,0,1,1.6,4.73,4.73,0,0,0,3.51,1.45Z"/></svg>