<?xml version="1.0" encoding="utf-8"?>
<!-- Generator: Adobe Illustrator 25.0.1, SVG Export Plug-In . SVG Version: 6.00 Build 0)  -->
<svg version="1.1" id="Capa_1" xmlns="http://www.w3.org/2000/svg" xmlns:xlink="http://www.w3.org/1999/xlink" x="0px" y="0px"
	 viewBox="0 0 147.55 140.59" style="enable-background:new 0 0 147.55 140.59;" xml:space="preserve">
<style type="text/css">
	.st0{fill:url(#SVGID_1_);}
	.st1{fill:url(#SVGID_2_);}
	.st2{fill:#344E9C;}
	.st3{fill:#69C7F2;}
	.st4{fill:#2F8DCC;}
	.st5{fill:#FFFFFF;}
	.st6{fill:#1D1D1B;}
	.st7{fill:url(#SVGID_3_);}
	.st8{fill:url(#SVGID_4_);}
	.st9{fill:url(#SVGID_5_);}
	.st10{fill:url(#SVGID_6_);}
	.st11{fill:url(#SVGID_7_);}
	.st12{fill:#454443;}
	.st13{fill:#69C8F2;}
	.st14{fill:#364E9C;}
	.st15{fill:url(#SVGID_8_);}
</style>
<g>
	<g>
		<path class="st2" d="M94.8,31.5c-1.93-8.3-7.37-15.25-14.7-19.17c-2.06-0.34-4.17-0.56-6.33-0.56c-1.06,0-2.11,0.04-3.15,0.13
			c-0.02,0-0.04,0.01-0.05,0.01c-1.84,0.11-3.32,0.35-4.54,0.67c-0.2,0.05-0.41,0.11-0.6,0.17c-3.77,1.18-4.55,4.77-4.55,7.85V34.5
			v2.17c0,0,0,0.68,0.64,0.36c1.97-0.98,4.08-1.41,6.49-1.41c2.92,0,5.54,0.69,7.85,2.08c2.31,1.38,4.14,3.27,5.49,5.66
			c1.32,2.34,1.98,4.98,2.01,7.9c0,0.51-0.04,1-0.09,1.5h0.02c-0.17,2.5-0.82,4.78-2,6.82c-1.38,2.39-3.27,4.28-5.66,5.66
			c-1.56,0.9-3.27,1.48-5.1,1.79c14.14-2.03,25.02-14.16,25.04-28.87c0-0.01,0-0.02,0-0.03C95.58,35.84,95.29,33.63,94.8,31.5z"/>
		<path class="st3" d="M81.18,86.59c-13.86,0-25.4-9.67-28.45-22.61c-1.39-5.88-1.05-10.92-0.97-11.79
			c0.01,0.19,0.04,0.36,0.05,0.54c-0.03-0.35-0.06-0.7-0.07-1.07V19.81c0,0,0.09-1.25-0.88-0.54c-6.25,4.56-11.08,10.94-13.73,18.36
			c-1.46,4.09-2.3,8.49-2.3,13.08c0,21.5,17.43,38.94,38.94,38.94c8.67,0,16.65-2.87,23.12-7.66
			C92.35,84.89,86.97,86.59,81.18,86.59z"/>
		<path class="st4" d="M80.1,12.33c7.33,3.92,12.77,10.87,14.7,19.17c0.49,2.13,0.78,4.34,0.78,6.62c0,0.01,0,0.02,0,0.03
			c-0.02,14.7-10.9,26.83-25.04,28.87c-0.47,0.08-0.94,0.15-1.42,0.19c-0.15,0.01-0.3,0.02-0.45,0.03c-0.04,0-0.08,0.01-0.13,0.01
			c-0.56,0.07-1.13,0.11-1.71,0.11c-0.08,0-0.16-0.01-0.24-0.01c-3.89-0.06-7.4-1.68-9.95-4.25c-1.06-1-1.99-2.14-2.75-3.44
			c-0.71-1.21-1.47-3.02-1.87-5.48c-0.07-0.48-0.15-0.96-0.19-1.45c-0.02-0.18-0.04-0.35-0.05-0.54c-0.08,0.87-0.42,5.91,0.97,11.79
			c3.05,12.94,14.59,22.61,28.45,22.61c5.79,0,11.17-1.7,15.71-4.61c4.2-3.11,7.74-7.03,10.41-11.55
			c3.42-5.79,5.41-12.52,5.41-19.73C112.71,31.36,98.59,15.35,80.1,12.33z"/>
	</g>
	<g>
		<g>
			<path class="st2" d="M32.85,110.37c-1.44-0.86-3.07-1.29-4.88-1.29c-1.58,0-3.01,0.34-4.3,1.01c-1.29,0.67-2.32,1.56-3.1,2.67
				v-10.4c0-0.42-0.12-0.76-0.37-1.01c-0.25-0.25-0.57-0.37-0.97-0.37c-0.42,0-0.76,0.12-1.01,0.37c-0.25,0.25-0.37,0.58-0.37,1.01
				v16.7c0.02,1.84,0.47,3.5,1.33,4.97c0.86,1.47,2.03,2.64,3.5,3.49c1.47,0.85,3.13,1.27,4.97,1.27c1.89,0,3.57-0.43,5.06-1.29
				c1.49-0.86,2.66-2.03,3.52-3.52c0.86-1.49,1.29-3.17,1.29-5.06c0-1.86-0.42-3.54-1.26-5.02
				C35.42,112.41,34.29,111.23,32.85,110.37z M33.89,122.7c-0.63,1.11-1.48,1.99-2.57,2.64c-1.09,0.65-2.31,0.97-3.68,0.97
				c-1.35,0-2.56-0.32-3.65-0.97c-1.09-0.65-1.93-1.53-2.55-2.64c-0.61-1.11-0.92-2.37-0.92-3.79c0-1.39,0.31-2.65,0.92-3.77
				c0.61-1.12,1.46-2,2.55-2.64c1.08-0.64,2.3-0.96,3.65-0.96c1.37,0,2.59,0.32,3.68,0.96c1.08,0.64,1.94,1.52,2.57,2.64
				s0.94,2.38,0.94,3.77C34.83,120.33,34.52,121.6,33.89,122.7z M129.38,126.67l-7.36-9.07l7.08-6.4c0.28-0.24,0.43-0.51,0.44-0.83
				c0.01-0.32-0.11-0.62-0.37-0.9c-0.26-0.28-0.54-0.43-0.85-0.44c-0.31-0.01-0.6,0.11-0.88,0.37l-9.98,9.02v-16.09
				c0-0.4-0.12-0.73-0.37-0.97c-0.25-0.25-0.57-0.37-0.97-0.37c-0.4,0-0.73,0.12-0.97,0.37c-0.25,0.25-0.37,0.57-0.37,0.97v24.95
				c0,0.4,0.12,0.73,0.37,0.97c0.25,0.25,0.57,0.37,0.97,0.37c0.4,0,0.73-0.12,0.97-0.37c0.25-0.25,0.37-0.57,0.37-0.97v-5.55
				l2.66-2.41l7.28,8.94c0.24,0.31,0.52,0.48,0.85,0.51c0.33,0.03,0.65-0.08,0.96-0.34c0.31-0.26,0.47-0.55,0.5-0.87
				C129.72,127.25,129.62,126.95,129.38,126.67z M108.08,101.72c-0.52,0-0.97,0.17-1.36,0.51c-0.39,0.34-0.58,0.81-0.58,1.4
				c0,0.54,0.19,1,0.57,1.38c0.38,0.38,0.83,0.57,1.35,0.57c0.54,0,1-0.19,1.38-0.57c0.38-0.38,0.57-0.84,0.57-1.38
				c0-0.59-0.19-1.05-0.58-1.4C109.02,101.89,108.57,101.72,108.08,101.72z M97.43,110.09c-1.32-0.7-2.82-1.04-4.49-1.04
				c-1.53,0-2.93,0.34-4.18,1.01c-0.88,0.47-1.63,1.08-2.27,1.8v-1.21c0-0.42-0.12-0.76-0.37-1.01c-0.25-0.25-0.57-0.37-0.97-0.37
				c-0.42,0-0.76,0.12-1.01,0.37c-0.25,0.25-0.37,0.58-0.37,1.01v16.63c0,0.4,0.12,0.73,0.37,0.97c0.25,0.25,0.58,0.37,1.01,0.37
				c0.4,0,0.72-0.12,0.97-0.37c0.25-0.25,0.37-0.57,0.37-0.97V116.8c0-0.99,0.27-1.88,0.81-2.65c0.54-0.78,1.28-1.39,2.21-1.84
				c0.93-0.45,1.97-0.67,3.13-0.67c1.2,0,2.28,0.24,3.24,0.71c0.96,0.47,1.71,1.18,2.26,2.12c0.55,0.94,0.83,2.15,0.83,3.61v9.2
				c0,0.38,0.13,0.7,0.39,0.96c0.26,0.26,0.59,0.39,0.99,0.39c0.38,0,0.7-0.13,0.96-0.39c0.26-0.26,0.39-0.58,0.39-0.96v-9.2
				c0-1.93-0.38-3.57-1.15-4.92C99.79,111.81,98.75,110.79,97.43,110.09z M108.08,109.26c-0.42,0-0.76,0.12-1.01,0.37
				c-0.25,0.25-0.37,0.58-0.37,1.01v16.6c0,0.42,0.12,0.76,0.37,1.01c0.25,0.25,0.58,0.37,1.01,0.37c0.4,0,0.73-0.12,0.97-0.37
				c0.25-0.25,0.37-0.58,0.37-1.01v-16.6c0-0.42-0.12-0.76-0.37-1.01C108.8,109.38,108.48,109.26,108.08,109.26z M54.2,110.3
				c-1.33-0.81-2.9-1.22-4.69-1.22c-1.82,0-3.42,0.42-4.81,1.27c-1.39,0.85-2.48,2.01-3.27,3.49c-0.79,1.47-1.19,3.18-1.19,5.11
				c0,1.91,0.42,3.61,1.26,5.09c0.84,1.49,1.99,2.65,3.47,3.49c1.47,0.84,3.17,1.26,5.08,1.26c1.11,0,2.27-0.22,3.47-0.65
				c1.2-0.44,2.19-0.99,2.97-1.65c0.28-0.24,0.42-0.52,0.41-0.85s-0.17-0.64-0.48-0.92c-0.24-0.19-0.52-0.28-0.85-0.27
				c-0.33,0.01-0.63,0.12-0.88,0.34c-0.52,0.45-1.21,0.82-2.07,1.11c-0.86,0.3-1.72,0.44-2.57,0.44c-1.41,0-2.67-0.32-3.75-0.96
				c-1.08-0.64-1.94-1.51-2.57-2.62c-0.49-0.87-0.78-1.86-0.89-2.94h14.28c0.38,0,0.68-0.11,0.92-0.34c0.24-0.22,0.35-0.53,0.35-0.9
				c0-1.84-0.37-3.48-1.1-4.92C56.57,112.24,55.54,111.12,54.2,110.3z M42.9,117.57c0.12-0.89,0.36-1.71,0.73-2.46
				c0.55-1.12,1.34-2,2.35-2.64c1.01-0.64,2.19-0.96,3.54-0.96c1.32,0,2.46,0.31,3.41,0.92c0.96,0.61,1.69,1.46,2.21,2.55
				c0.38,0.79,0.6,1.65,0.7,2.58H42.9z M77.61,109.26c-0.4,0-0.73,0.12-0.97,0.37c-0.25,0.25-0.37,0.57-0.37,0.97v10.47
				c0,0.99-0.27,1.88-0.81,2.65c-0.54,0.78-1.28,1.39-2.21,1.84c-0.93,0.45-1.98,0.67-3.13,0.67c-1.2,0-2.28-0.24-3.24-0.71
				c-0.96-0.47-1.71-1.18-2.27-2.12c-0.55-0.94-0.83-2.15-0.83-3.61v-9.2c0-0.38-0.13-0.69-0.39-0.96
				c-0.26-0.26-0.59-0.39-0.99-0.39c-0.38,0-0.7,0.13-0.96,0.39c-0.26,0.26-0.39,0.58-0.39,0.96v9.2c0,1.94,0.38,3.57,1.15,4.92
				c0.77,1.35,1.81,2.36,3.13,3.06c1.32,0.7,2.82,1.04,4.49,1.04c1.53,0,2.92-0.34,4.18-1.01c0.88-0.47,1.63-1.08,2.26-1.8v1.22
				c0,0.42,0.12,0.76,0.37,1.01c0.25,0.25,0.57,0.37,0.97,0.37c0.4,0,0.73-0.12,0.99-0.37c0.26-0.25,0.39-0.58,0.39-1.01V110.6
				c0-0.4-0.13-0.72-0.39-0.97C78.34,109.38,78.01,109.26,77.61,109.26z"/>
		</g>
	</g>
</g>
</svg>
